<mxfile host="app.diagrams.net" modified="2023-04-16T15:11:29.334Z" agent="Mozilla/5.0 (Linux; Android 13; SAMSUNG SM-M225FV) AppleWebKit/537.36 (KHTML, like Gecko) SamsungBrowser/20.0 Chrome/106.0.5249.126 Mobile Safari/537.36" version="21.1.8" etag="klhlph_KrqcplrjBbf98" type="github">
  <diagram name="Page-1" id="cCjzMprwjPhv7-VdtlGs">
    <mxGraphModel>
      <root>
        <mxCell id="0" />
        <mxCell id="1" parent="0" />
      </root>
    </mxGraphModel>
  </diagram>
</mxfile>
